<?xml version="1.0" standalone="no"?>
<!DOCTYPE svg PUBLIC "-//W3C//DTD SVG 20010904//EN"
 "http://www.w3.org/TR/2001/REC-SVG-20010904/DTD/svg10.dtd">
<svg version="1.0" xmlns="http://www.w3.org/2000/svg"
 width="243.000000pt" height="243.000000pt" viewBox="0 0 243.000000 243.000000"
 preserveAspectRatio="xMidYMid meet">
<metadata>
Created by potrace 1.14, written by Peter Selinger 2001-2017
</metadata>
<g transform="translate(0.000000,243.000000) scale(0.100000,-0.100000)"
fill="#000000" stroke="none">
<path d="M145 2263 c-102 -31 -141 -81 -131 -170 7 -63 28 -107 90 -188 81
-108 125 -149 171 -161 6 -1 42 -14 80 -29 39 -15 117 -44 175 -65 694 -252
1072 -385 1340 -471 85 -28 183 -59 216 -70 34 -11 74 -22 90 -25 15 -3 31 -7
36 -10 9 -6 40 -13 82 -19 61 -9 126 50 126 115 0 56 -33 83 -217 177 -923
474 -1667 831 -1902 913 -65 23 -89 24 -156 3z"/>
<path d="M381 1451 c-35 -35 -26 -62 66 -187 124 -170 396 -528 466 -614 7 -8
50 -62 97 -120 47 -58 95 -116 107 -130 12 -14 31 -36 43 -50 97 -113 183
-190 210 -190 10 0 56 28 102 62 81 59 529 424 582 473 6 6 38 33 71 60 115
95 132 114 133 144 0 16 -7 36 -18 46 -48 44 -1285 431 -1530 479 -14 3 -60
12 -103 20 -43 9 -107 19 -142 22 -55 6 -65 4 -84 -15z"/>
</g>
</svg>
